<svg width="68" height="25" viewBox="0 0 68 25" fill="none" xmlns="http://www.w3.org/2000/svg">
<path d="M8.75005 6.35001C10 6.35001 11.1334 6.64168 12.15 7.22501C13.1834 7.79168 13.9917 8.60001 14.575 9.65001C15.1584 10.6833 15.4501 11.8917 15.4501 13.275C15.4501 14.6583 15.1584 15.875 14.575 16.925C13.9917 17.9583 13.1834 18.7667 12.15 19.35C11.1334 19.9167 10 20.2 8.75005 20.2C7.03338 20.2 5.68338 19.6583 4.70005 18.575V24.85H0.800049V6.55001H4.52505V8.10001C5.49172 6.93335 6.90005 6.35001 8.75005 6.35001ZM8.07505 17C9.07505 17 9.89172 16.6667 10.525 16C11.175 15.3167 11.5 14.4083 11.5 13.275C11.5 12.1417 11.175 11.2417 10.525 10.575C9.89172 9.89168 9.07505 9.55001 8.07505 9.55001C7.07505 9.55001 6.25005 9.89168 5.60005 10.575C4.96672 11.2417 4.65005 12.1417 4.65005 13.275C4.65005 14.4083 4.96672 15.3167 5.60005 16C6.25005 16.6667 7.07505 17 8.07505 17Z" fill="#1C839A"/>
<path d="M18.0608 6.55001H21.9608V20H18.0608V6.55001ZM20.0108 4.67501C19.2941 4.67501 18.7108 4.46668 18.2608 4.05001C17.8108 3.63335 17.5858 3.11668 17.5858 2.50001C17.5858 1.88335 17.8108 1.36668 18.2608 0.950013C18.7108 0.533346 19.2941 0.325012 20.0108 0.325012C20.7275 0.325012 21.3108 0.525013 21.7608 0.925013C22.2108 1.32501 22.4358 1.82501 22.4358 2.42501C22.4358 3.07501 22.2108 3.61668 21.7608 4.05001C21.3108 4.46668 20.7275 4.67501 20.0108 4.67501Z" fill="#1C839A"/>
<path d="M34.1303 20L31.1803 15.875L28.1303 20H23.8803L29.0553 13.225L24.0553 6.55001H28.4303L31.2803 10.475L34.2053 6.55001H38.3553L33.3553 13.125L38.5553 20H34.1303Z" fill="#1C839A"/>
<path d="M53.2084 13.325C53.2084 13.375 53.1834 13.725 53.1334 14.375H42.9584C43.1418 15.2083 43.5751 15.8667 44.2584 16.35C44.9418 16.8333 45.7918 17.075 46.8084 17.075C47.5084 17.075 48.1251 16.975 48.6584 16.775C49.2084 16.5583 49.7168 16.225 50.1834 15.775L52.2584 18.025C50.9918 19.475 49.1418 20.2 46.7084 20.2C45.1918 20.2 43.8501 19.9083 42.6834 19.325C41.5168 18.725 40.6168 17.9 39.9834 16.85C39.3501 15.8 39.0334 14.6083 39.0334 13.275C39.0334 11.9583 39.3418 10.775 39.9584 9.72501C40.5918 8.65835 41.4501 7.83335 42.5334 7.25001C43.6334 6.65001 44.8584 6.35001 46.2084 6.35001C47.5251 6.35001 48.7168 6.63335 49.7834 7.20001C50.8501 7.76668 51.6834 8.58335 52.2834 9.65001C52.9001 10.7 53.2084 11.925 53.2084 13.325ZM46.2334 9.30001C45.3501 9.30001 44.6084 9.55001 44.0084 10.05C43.4084 10.55 43.0418 11.2333 42.9084 12.1H49.5334C49.4001 11.25 49.0334 10.575 48.4334 10.075C47.8334 9.55835 47.1001 9.30001 46.2334 9.30001Z" fill="#1C839A"/>
<path d="M55.8049 1.45001H59.7049V20H55.8049V1.45001Z" fill="#1C839A"/>
<path d="M65.275 20.2C64.5917 20.2 64.0167 19.9667 63.55 19.5C63.0834 19.0333 62.85 18.45 62.85 17.75C62.85 17.0333 63.0834 16.4583 63.55 16.025C64.0167 15.575 64.5917 15.35 65.275 15.35C65.9584 15.35 66.5334 15.575 67 16.025C67.4667 16.4583 67.7001 17.0333 67.7001 17.75C67.7001 18.45 67.4667 19.0333 67 19.5C66.5334 19.9667 65.9584 20.2 65.275 20.2Z" fill="#FF3E3E"/>
</svg>
